<svg width="20" height="20" viewBox="0 0 20 20" fill="none"
  xmlns="http://www.w3.org/2000/svg">
  <mask id="mask0_151_313" style="mask-type:alpha" maskUnits="userSpaceOnUse" x="0" y="0" width="20" height="20">
    <rect width="20" height="20" fill="#D9D9D9"/>
  </mask>
  <g mask="url(#mask0_151_313)">
    <path d="M18.7537 0.487016C18.8764 0.484447 18.9984 0.506726 19.1123 0.552514C19.2262 0.598301 19.3296 0.666651 19.4164 0.753452C19.5032 0.840254 19.5716 0.943713 19.6174 1.05761C19.6632 1.17151 19.6854 1.29349 19.6829 1.41622C19.6321 3.05411 19.222 6.61921 16.8302 9.96949C15.0181 12.5077 9.66193 15.806 8.63602 16.4243C8.58717 16.4534 8.52999 16.4654 8.47354 16.4584C8.41709 16.4514 8.3646 16.4257 8.32439 16.3855C7.62022 15.6816 4.48832 12.5497 3.78424 11.8456C3.74399 11.8053 3.71833 11.7528 3.7113 11.6963C3.70428 11.6399 3.71631 11.5827 3.74547 11.5338C4.36387 10.508 7.6622 5.15178 10.2004 3.33972C13.5507 0.947871 17.1158 0.537801 18.7537 0.487016Z" fill="#7101FF"/>
    <path d="M10.6382 3.03886C13.7569 0.978885 16.9802 0.560585 18.6026 0.492432C18.3426 2.48006 17.5878 6.50487 15.5834 8.74486L10.6382 3.03886Z" fill="#B251FF"/>
    <path d="M7.55138 7.58114L5.04298 6.64042C4.9569 6.60811 4.86357 6.60025 4.7733 6.6177C4.68303 6.63514 4.59934 6.67722 4.5315 6.73927C3.81557 7.39775 1.56858 9.50465 0.292442 11.1759C0.251691 11.2339 0.227371 11.3018 0.222055 11.3725C0.216739 11.4431 0.230625 11.5139 0.262243 11.5774C0.293862 11.6408 0.342037 11.6945 0.401673 11.7328C0.461309 11.7711 0.530188 11.7926 0.601023 11.7949C2.05454 11.8437 5.16513 11.9463 5.16513 11.9463L7.55138 7.58114Z" fill="#B251FF"/>
    <path d="M12.569 12.5986L13.5097 15.1071C13.542 15.1932 13.5498 15.2865 13.5324 15.3768C13.515 15.4671 13.4729 15.5507 13.4109 15.6186C12.7524 16.3345 10.6455 18.5814 8.9742 19.8576C8.91622 19.8984 8.84829 19.9227 8.77761 19.928C8.70692 19.9334 8.63611 19.9195 8.57267 19.8879C8.50923 19.8562 8.45552 19.808 8.41722 19.7484C8.37893 19.6887 8.35748 19.6198 8.35514 19.549C8.30642 18.0956 8.20386 14.9849 8.20386 14.9849L12.569 12.5986Z" fill="#B251FF"/>
    <path d="M7.02858 8.53713L5.16508 11.9459C5.16508 11.9459 2.36274 11.8535 0.8349 11.8025C2.134 10.2489 3.98672 8.51285 4.62446 7.92622C4.69233 7.86419 4.77603 7.82213 4.86631 7.8047C4.9566 7.78726 5.04994 7.79514 5.13602 7.82745L7.02858 8.53713Z" fill="url(#paint0_linear_151_313)"/>
    <path d="M11.6127 13.1216L8.20386 14.985C8.20386 14.985 8.29621 17.7874 8.34732 19.3153C9.90085 18.0162 11.6369 16.1634 12.2235 15.5256C12.2855 15.4578 12.3276 15.3741 12.345 15.2838C12.3625 15.1936 12.3546 15.1002 12.3223 15.0141L11.6127 13.1216Z" fill="url(#paint1_linear_151_313)"/>
    <path d="M17.5542 8.85098C17.3299 9.23456 17.0883 9.60775 16.8301 9.96941C15.018 12.5076 9.66187 15.8059 8.63595 16.4242C8.58711 16.4533 8.52993 16.4653 8.47348 16.4583C8.41703 16.4513 8.36454 16.4256 8.32433 16.3854C7.62016 15.6815 4.48826 12.5496 3.78418 11.8455C3.74393 11.8053 3.71827 11.7527 3.71124 11.6963C3.70422 11.6398 3.71624 11.5826 3.74541 11.5337C4.36381 10.5079 7.66214 5.1517 10.2003 3.33964C10.562 3.08148 10.9352 2.83984 11.3188 2.61548C11.9642 4.107 12.6829 5.18287 13.7499 6.24986C14.8169 7.31685 16.0714 8.03557 17.5542 8.85098Z" fill="#B482FF"/>
    <path d="M4.35809 10.5443C5.58073 8.61392 8.14083 4.80995 10.2004 3.33964C10.5621 3.08148 10.9353 2.83984 11.3188 2.61548C11.9642 3.92843 12.839 4.95456 13.7951 5.89272V6.37467C13.7951 6.37467 12.2902 6.86269 13.0967 10.5652C13.5052 12.4404 7.93192 14.1181 6.99186 13.1779L4.35809 10.5443Z" fill="#D1B9FF"/>
    <path d="M16.0532 1.68285C16.0744 1.66614 16.0893 1.64263 16.0952 1.61627C16.1012 1.58991 16.0979 1.5623 16.0859 1.53809C16.0739 1.51388 16.0539 1.49453 16.0293 1.4833C16.0047 1.47207 15.9771 1.46964 15.9509 1.47642C14.8862 1.74788 12.5265 2.41854 12.7314 2.98286C12.9763 3.65714 14.3474 3.04138 16.0532 1.68285Z" fill="white" fill-opacity="0.3"/>
    <path d="M7.66066 7.29664C7.6487 7.32086 7.64543 7.34847 7.65142 7.37482C7.6574 7.40118 7.67227 7.42467 7.69353 7.44135C7.71478 7.45803 7.74114 7.46689 7.76816 7.46644C7.79517 7.46599 7.82121 7.45626 7.84191 7.43888C8.68587 6.73534 10.5267 5.11376 10.0987 4.69273C9.5873 4.18965 8.61505 5.3359 7.66066 7.29664Z" fill="white" fill-opacity="0.3"/>
    <path d="M6.16394 17.2792C4.62974 18.8134 1.38841 20.5849 0.481838 19.6783C-0.424736 18.7717 1.34674 15.5304 2.88094 13.9962C4.41514 12.462 5.13109 13.2159 6.03767 14.1225C6.94424 15.029 7.69814 15.745 6.16394 17.2792Z" fill="url(#paint2_linear_151_313)"/>
    <path d="M5.58996 16.3377C4.75312 17.1745 2.99026 18.1459 2.50211 17.6577C2.01395 17.1696 2.98535 15.4067 3.82219 14.5699C4.65902 13.7331 5.0444 14.1391 5.53256 14.6273C6.02071 15.1155 6.42679 15.5008 5.58996 16.3377Z" fill="url(#paint3_linear_151_313)"/>
    <path d="M15.5412 4.62871C16.5048 5.5924 16.5048 7.1572 15.5412 8.12089C14.5775 9.08458 13.0127 9.08458 12.0491 8.12089C11.0854 7.1572 11.0854 5.5924 12.0491 4.62871C13.0127 3.6651 14.5775 3.6651 15.5412 4.62871Z" fill="#4200B9"/>
    <path d="M15.0295 5.14036C15.7108 5.82164 15.7108 6.92789 15.0295 7.60917C14.3482 8.29045 13.242 8.29045 12.5607 7.60917C11.8794 6.92789 11.8794 5.82164 12.5607 5.14036C13.242 4.45907 14.3482 4.45907 15.0295 5.14036Z" fill="#D1B9FF"/>
    <path d="M7.91676 15.978L4.1918 12.2532L3.92314 13.3947C3.9029 13.4807 3.90012 13.57 3.91498 13.6571C3.92984 13.7443 3.96203 13.8276 4.00965 13.9021L4.64525 14.8966C4.80663 15.149 5.02095 15.3633 5.27336 15.5247L6.26783 16.1603C6.34233 16.2079 6.42563 16.2401 6.51279 16.2549C6.59995 16.2698 6.68921 16.267 6.77528 16.2468L7.91676 15.978Z" fill="#4300B9"/>
    <path d="M12.7906 4.94682C13.4716 4.4667 14.4205 4.53123 15.0296 5.14041L12.5607 7.60923C11.9516 7.00005 11.8871 6.05126 12.3672 5.37014L12.7906 4.94682Z" fill="#EFE6FF"/>
    <g filter="url(#filter0_d_151_313)">
      <path d="M9.16803 11.8166C9.22202 11.7626 9.25235 11.6893 9.25235 11.6129C9.25235 11.5365 9.22202 11.4632 9.16803 11.4092L8.7606 11.0018C8.70657 10.9478 8.63331 10.9175 8.55692 10.9175C8.48053 10.9175 8.40727 10.9478 8.35324 11.0018L4.22086 15.1341C4.16686 15.1882 4.13654 15.2615 4.13654 15.3379C4.13654 15.4142 4.16686 15.4875 4.22086 15.5416L4.62829 15.949C4.68234 16.003 4.75561 16.0333 4.83201 16.0333C4.90841 16.0333 4.98168 16.003 5.03573 15.949L9.16803 11.8166Z" fill="#B251FF"/>
    </g>
  </g>
  <defs>
    <filter id="filter0_d_151_313" x="3.13654" y="10.9175" width="7.11584" height="7.11572" filterUnits="userSpaceOnUse" color-interpolation-filters="sRGB">
      <feFlood flood-opacity="0" result="BackgroundImageFix"/>
      <feColorMatrix in="SourceAlpha" type="matrix" values="0 0 0 0 0 0 0 0 0 0 0 0 0 0 0 0 0 0 127 0" result="hardAlpha"/>
      <feOffset dy="1"/>
      <feGaussianBlur stdDeviation="0.5"/>
      <feComposite in2="hardAlpha" operator="out"/>
      <feColorMatrix type="matrix" values="0 0 0 0 0.185945 0 0 0 0 0.128122 0 0 0 0 0.289325 0 0 0 0.39 0"/>
      <feBlend mode="normal" in2="BackgroundImageFix" result="effect1_dropShadow_151_313"/>
      <feBlend mode="normal" in="SourceGraphic" in2="effect1_dropShadow_151_313" result="shape"/>
    </filter>
    <linearGradient id="paint0_linear_151_313" x1="5.53564" y1="9.46409" x2="-0.334103" y2="8.99582" gradientUnits="userSpaceOnUse">
      <stop stop-color="#330185"/>
      <stop offset="1" stop-color="#5A01EB"/>
    </linearGradient>
    <linearGradient id="paint1_linear_151_313" x1="10.1785" y1="14.2859" x2="10.3571" y2="20.7144" gradientUnits="userSpaceOnUse">
      <stop stop-color="#330185"/>
      <stop offset="1" stop-color="#5A01EB"/>
    </linearGradient>
    <linearGradient id="paint2_linear_151_313" x1="6.03768" y1="14.1225" x2="0.476182" y2="20" gradientUnits="userSpaceOnUse">
      <stop stop-color="#FFCB1E"/>
      <stop offset="1" stop-color="#FFC300" stop-opacity="0"/>
    </linearGradient>
    <linearGradient id="paint3_linear_151_313" x1="5.53257" y1="14.6273" x2="2.50211" y2="17.6577" gradientUnits="userSpaceOnUse">
      <stop stop-color="#FF471E"/>
      <stop offset="1" stop-color="#FF5C00" stop-opacity="0"/>
    </linearGradient>
  </defs>
</svg>
