<svg xmlns="http://www.w3.org/2000/svg" width="36" height="36" viewBox="0 0 36 36" fill="none">
  <path d="M0 6.9838L17.3888 0L34.8153 6.9838L17.37 13.9864L0 6.9838Z" fill="#C23631"/>
  <path d="M1.49855 6.99329V28.6327L0 28.0295V6.99329H1.49855Z" fill="#C23631"/>
  <path d="M18.1522 13.0439V34.7776L17.4736 35.0509L16.6631 34.721V13.0439H18.1522Z" fill="#C23631"/>
  <path d="M19.4811 34.2405L18.1522 34.7777L17.4736 35.051L16.6631 34.7211L15.4661 34.2405L1.49855 28.6327L0 28.0295V26.4178L1.49855 27.021L16.6631 33.1095L17.4736 33.4393L18.1522 33.7127L19.4811 34.2405Z" fill="#C23631"/>
  <path d="M0 6.98376V8.60484L18.1522 15.8902V14.2786L0 6.98376Z" fill="#C23631"/>
  <path d="M43.0903 3.65674L17.2852 14.024L17.8412 15.4095L43.0903 5.27781V3.65674Z" fill="#C23631"/>
  <path d="M43.0903 10.16L17.2852 20.5179L17.8412 21.9128L43.0903 11.7717V10.16Z" fill="#C23631"/>
  <path d="M43.0903 16.6537L17.2852 27.021L17.8412 28.4064L43.0903 18.2748V16.6537Z" fill="#C23631"/>
  <path d="M43.0902 23.1567V24.7684L19.481 34.2403L18.1521 34.7776L17.4736 35.0509L16.663 34.721L15.4661 34.2403L16.663 33.7597L17.4736 33.4392L18.1521 33.1659L43.0902 23.1567Z" fill="#C23631"/>
</svg>